<svg width="56" height="56" viewBox="0 0 56 56" fill="none" xmlns="http://www.w3.org/2000/svg">
<path fill-rule="evenodd" clip-rule="evenodd" d="M20.4888 16.2607C20.3262 16.0977 20.1331 15.9684 19.9205 15.8802C19.7079 15.792 19.48 15.7466 19.2498 15.7466C19.0196 15.7466 18.7917 15.792 18.5791 15.8802C18.3665 15.9684 18.1734 16.0977 18.0108 16.2607L7.5108 26.7607C7.34783 26.9233 7.21853 27.1164 7.13031 27.329C7.04209 27.5416 6.99667 27.7695 6.99667 27.9997C6.99667 28.2299 7.04209 28.4578 7.13031 28.6704C7.21853 28.883 7.34783 29.0762 7.5108 29.2387L18.0108 39.7387C18.3394 40.0673 18.7851 40.2519 19.2498 40.2519C19.7145 40.2519 20.1602 40.0673 20.4888 39.7387C20.8174 39.4101 21.002 38.9644 21.002 38.4997C21.002 38.035 20.8174 37.5893 20.4888 37.2607L11.2243 27.9997L20.4888 18.7387C20.6518 18.5762 20.7811 18.383 20.8693 18.1704C20.9575 17.9578 21.0029 17.7299 21.0029 17.4997C21.0029 17.2695 20.9575 17.0416 20.8693 16.829C20.7811 16.6164 20.6518 16.4233 20.4888 16.2607V16.2607Z" fill="#C4C4C4"/>
<path fill-rule="evenodd" clip-rule="evenodd" d="M49 28C49 27.5359 48.8156 27.0908 48.4874 26.7626C48.1592 26.4344 47.7141 26.25 47.25 26.25H10.5C10.0359 26.25 9.59075 26.4344 9.26256 26.7626C8.93437 27.0908 8.75 27.5359 8.75 28C8.75 28.4641 8.93437 28.9092 9.26256 29.2374C9.59075 29.5656 10.0359 29.75 10.5 29.75H47.25C47.7141 29.75 48.1592 29.5656 48.4874 29.2374C48.8156 28.9092 49 28.4641 49 28Z" fill="#C4C4C4"/>
</svg>
