<svg width="56" height="56" viewBox="0 0 56 56" fill="currentColor" xmlns="http://www.w3.org/2000/svg">
<path fill-rule="evenodd" clip-rule="evenodd" d="M35.5112 16.2607C35.6738 16.0977 35.8669 15.9684 36.0795 15.8802C36.2921 15.792 36.52 15.7466 36.7502 15.7466C36.9804 15.7466 37.2083 15.792 37.4209 15.8802C37.6335 15.9684 37.8266 16.0977 37.9892 16.2607L48.4892 26.7607C48.6522 26.9233 48.7815 27.1164 48.8697 27.329C48.9579 27.5416 49.0033 27.7695 49.0033 27.9997C49.0033 28.2299 48.9579 28.4578 48.8697 28.6704C48.7815 28.883 48.6522 29.0762 48.4892 29.2387L37.9892 39.7387C37.6606 40.0673 37.2149 40.2519 36.7502 40.2519C36.2855 40.2519 35.8398 40.0673 35.5112 39.7387C35.1826 39.4101 34.998 38.9644 34.998 38.4997C34.998 38.035 35.1826 37.5893 35.5112 37.2607L44.7757 27.9997L35.5112 18.7387C35.3482 18.5762 35.2189 18.383 35.1307 18.1704C35.0425 17.9578 34.9971 17.7299 34.9971 17.4997C34.9971 17.2695 35.0425 17.0416 35.1307 16.829C35.2189 16.6164 35.3482 16.4233 35.5112 16.2607V16.2607Z" fill="#C4C4C4"/>
<path fill-rule="evenodd" clip-rule="evenodd" d="M7 28C7 27.5359 7.18437 27.0908 7.51256 26.7626C7.84075 26.4344 8.28587 26.25 8.75 26.25H45.5C45.9641 26.25 46.4092 26.4344 46.7374 26.7626C47.0656 27.0908 47.25 27.5359 47.25 28C47.25 28.4641 47.0656 28.9092 46.7374 29.2374C46.4092 29.5656 45.9641 29.75 45.5 29.75H8.75C8.28587 29.75 7.84075 29.5656 7.51256 29.2374C7.18437 28.9092 7 28.4641 7 28Z" fill="#C4C4C4"/>
</svg>
