<svg width="48" height="80" viewBox="0 0 48 80" fill="none" xmlns="http://www.w3.org/2000/svg">
<path d="M37.5578 12.4792V47.6614C37.5578 49.3965 36.6628 51.0227 35.1711 51.913C31.2333 54.2613 26.8948 51.3588 26.8948 47.5251C26.8948 41.5089 26.9676 21.1799 26.9175 17.0305C26.8856 14.4006 26.9471 11.7274 26.749 9.10199C26.1523 1.18252 15.594 3.58085 10.7248 5.72708C7.3564 7.2124 4.51869 9.70384 2.7286 12.9243C2.30727 13.6829 1.93832 14.4732 1.63769 15.2886C1.54204 15.5475 1.45094 15.8087 1.36667 16.0698C0.70621 18.1071 0.375977 20.3032 0.375977 22.5903C0.375977 24.2641 0.713043 26.0152 1.36667 27.6368V47.5251C1.36667 52.5807 4.42531 57.0276 8.79576 59.1193C10.4583 59.8165 12.2051 60.2526 14.1296 60.2526C15.9652 60.2526 17.8008 59.8165 19.4611 59.1193C20.7729 58.422 22.0848 57.5499 23.1324 56.5052C24.2688 57.5499 25.4918 58.422 26.8925 59.1193C28.5527 59.8165 30.2996 60.2526 32.224 60.2526C34.0597 60.2526 35.8953 59.8165 37.5556 59.1193C41.926 57.0276 44.9869 52.5807 44.9869 47.5251V12.4701C44.9869 11.9727 44.5815 11.5684 44.0828 11.5707C42.5296 11.5753 39.9378 11.5753 38.4643 11.573C37.9632 11.573 37.5578 11.9772 37.5578 12.4792ZM8.79804 34.1458C9.31047 34.2344 9.84339 34.2821 10.3991 34.2821C12.7859 34.2821 16.8079 33.7393 19.329 29.8647C19.329 29.8647 19.3996 29.7603 19.4634 29.7012V47.6591C19.4634 49.392 18.5706 51.0181 17.0789 51.9084C13.1434 54.2613 8.79804 51.3588 8.79804 47.5251V34.1458ZM8.79804 18.2797C9.67258 14.0394 12.902 10.8281 18.0354 10.8281C18.0354 10.8281 19.4361 10.8281 19.4634 11.0279V11.0552C19.2607 12.7245 19.1924 19.9421 19.1924 20.9573C19.1924 21.8431 17.3522 25.922 13.3302 25.922C10.8478 25.922 9.34918 24.2891 8.79804 22.3836C8.63862 21.8295 8.5589 21.2526 8.5589 20.6871C8.5589 19.8581 8.64089 19.0518 8.79804 18.2797Z" fill="#FFBF2C"/>
<path d="M41.3158 4.92188C41.4775 4.92188 41.6255 4.98792 41.7234 5.10179C41.8373 5.21566 41.9033 5.36141 41.9033 5.52539C41.9033 5.68708 41.8373 5.83512 41.7234 5.94899C41.6255 6.06286 41.4797 6.12891 41.3158 6.12891C41.1541 6.12891 41.006 6.06286 40.8922 5.94899C40.7942 5.83512 40.7305 5.68936 40.7305 5.52539C40.7305 5.36369 40.7965 5.21566 40.8922 5.10179C41.006 4.98792 41.1541 4.92188 41.3158 4.92188Z" fill="#FFBF2C" stroke="white" stroke-width="0.170806" stroke-miterlimit="10"/>
<path d="M41.2681 4.20703C41.366 4.20703 41.448 4.23891 41.5117 4.30496C41.5596 4.371 41.6097 4.45071 41.6097 4.54864C41.6097 4.63063 41.5618 4.72856 41.5117 4.77638C41.4457 4.84243 41.366 4.87431 41.2681 4.87431C41.1861 4.87431 41.0881 4.84243 41.0403 4.77638C40.9743 4.72856 40.9424 4.63063 40.9424 4.54864C40.9424 4.45071 40.9743 4.36873 41.0403 4.30496C41.0881 4.23891 41.1861 4.20703 41.2681 4.20703Z" fill="#FFBF2C" stroke="white" stroke-width="0.170806" stroke-miterlimit="10"/>
<path d="M41.2993 6.19238C41.3972 6.19238 41.4792 6.22426 41.543 6.29031C41.5908 6.35635 41.6409 6.43607 41.6409 6.53399C41.6409 6.61598 41.5931 6.69569 41.543 6.76174C41.4769 6.82778 41.3972 6.85966 41.2993 6.85966C41.2173 6.85966 41.1376 6.82778 41.0716 6.76174C41.0055 6.69569 40.9736 6.61598 40.9736 6.53399C40.9736 6.43607 41.0055 6.35408 41.0716 6.29031C41.1376 6.22426 41.2173 6.19238 41.2993 6.19238Z" fill="#FFBF2C" stroke="white" stroke-width="0.170806" stroke-miterlimit="10"/>
<path d="M42.2925 5.18164C42.3904 5.18164 42.4724 5.22947 42.5361 5.29551C42.584 5.34334 42.6341 5.44127 42.6341 5.52325C42.6341 5.62118 42.5863 5.70316 42.5361 5.76693C42.4701 5.83297 42.3904 5.86486 42.2925 5.86486C42.2105 5.86486 42.1308 5.83297 42.0647 5.76693C41.9987 5.70089 41.9668 5.62118 41.9668 5.52325C41.9668 5.44127 41.9987 5.34334 42.0647 5.29551C42.1308 5.23174 42.2105 5.18164 42.2925 5.18164Z" fill="#FFBF2C" stroke="white" stroke-width="0.170806" stroke-miterlimit="10"/>
<path d="M40.3231 5.19922C40.405 5.19922 40.4848 5.2311 40.5508 5.29715C40.6168 5.36319 40.6487 5.4429 40.6487 5.54083C40.6487 5.62282 40.6168 5.72075 40.5508 5.76857C40.4848 5.83462 40.405 5.8665 40.3231 5.8665C40.2251 5.8665 40.1431 5.83462 40.0794 5.76857C40.0133 5.72075 39.9814 5.62282 39.9814 5.54083C39.9814 5.4429 40.0133 5.36091 40.0794 5.29715C40.1454 5.2311 40.2251 5.19922 40.3231 5.19922Z" fill="#FFBF2C" stroke="white" stroke-width="0.170806" stroke-miterlimit="10"/>
<path d="M41.7561 4.56375C41.8222 4.4977 41.9019 4.46582 41.9998 4.46582C42.0818 4.48176 42.1615 4.51365 42.2276 4.57969C42.2936 4.64574 42.3255 4.72545 42.3255 4.80743C42.3255 4.88942 42.2936 4.98735 42.2435 5.05112H42.2276C42.1797 5.11716 42.0818 5.14904 41.9998 5.14904C41.9178 5.1331 41.8199 5.10122 41.7561 5.03517C41.6901 4.96913 41.6582 4.88942 41.6582 4.80743C41.6582 4.72545 41.6924 4.62751 41.7561 4.56375Z" fill="#FFBF2C" stroke="white" stroke-width="0.170806" stroke-miterlimit="10"/>
<path d="M40.3548 4.59597C40.4208 4.52993 40.5005 4.49805 40.5984 4.49805C40.6804 4.49805 40.7601 4.52993 40.8262 4.59597C40.8922 4.66202 40.9241 4.75767 40.9241 4.83966C40.9241 4.92165 40.8922 5.00135 40.8262 5.0674C40.7601 5.13344 40.6804 5.16533 40.5984 5.16533C40.5165 5.16533 40.4185 5.13344 40.3548 5.0674C40.2887 5.00135 40.2568 4.92165 40.2568 4.83966C40.2591 4.74173 40.291 4.66202 40.3548 4.59597Z" fill="#FFBF2C" stroke="white" stroke-width="0.170806" stroke-miterlimit="10"/>
<path d="M41.7718 5.99734C41.8378 5.9313 41.9335 5.89941 42.0154 5.89941C42.0974 5.91536 42.1771 5.94724 42.2432 6.01328C42.3092 6.07933 42.3411 6.15904 42.3571 6.24103C42.3571 6.32301 42.3252 6.42094 42.2591 6.48471C42.1931 6.55076 42.0974 6.58264 42.0154 6.58264C41.9335 6.5667 41.8537 6.53481 41.7877 6.46877C41.7217 6.40272 41.6898 6.32301 41.6738 6.24103C41.6738 6.15904 41.708 6.06111 41.7718 5.99734Z" fill="#FFBF2C" stroke="white" stroke-width="0.170806" stroke-miterlimit="10"/>
<path d="M40.3548 5.99734C40.4208 5.9313 40.5005 5.89941 40.5825 5.89941C40.6804 5.89941 40.7624 5.9313 40.8262 5.99734C40.8922 6.06339 40.9241 6.15904 40.9241 6.24103C40.9241 6.32301 40.8922 6.42094 40.8262 6.46877C40.7601 6.53481 40.6804 6.56669 40.5984 6.56669C40.5005 6.56669 40.4185 6.53481 40.3548 6.46877C40.2887 6.40272 40.2568 6.32301 40.2568 6.24103C40.2591 6.1431 40.291 6.06111 40.3548 5.99734Z" fill="#FFBF2C" stroke="white" stroke-width="0.170806" stroke-miterlimit="10"/>
<path fill-rule="evenodd" clip-rule="evenodd" d="M41.8377 3.91289C41.544 3.8309 41.446 3.81496 41.3003 3.81496C41.1705 3.81496 41.1044 3.81496 40.7628 3.91289C39.8837 4.14063 40.6808 0.981859 41.3003 1.00008C41.8377 1.01602 42.7168 4.14063 41.8377 3.91289Z" fill="#FB1414" stroke="white" stroke-width="0.170806" stroke-miterlimit="10"/>
<path fill-rule="evenodd" clip-rule="evenodd" d="M40.6008 4.01038C40.553 4.05821 40.471 4.12426 40.389 4.20624C39.7377 4.84164 38.8586 1.71475 39.3961 1.42325C39.576 1.32532 40.0634 1.6191 40.5029 2.02448C40.2433 2.82157 40.1613 3.78264 40.5188 3.9785C40.5507 3.99444 40.5667 4.01038 40.6008 4.01038Z" fill="#FFBF2C" stroke="white" stroke-width="0.170806" stroke-miterlimit="10"/>
<path fill-rule="evenodd" clip-rule="evenodd" d="M42.0176 4.0109C42.0654 4.04278 42.1314 4.10883 42.2294 4.19081C42.8967 4.81027 43.6938 1.66744 43.1403 1.37366C42.9604 1.27573 42.489 1.58545 42.0495 2.00905C42.3273 2.80614 42.4412 3.76722 42.0814 3.97902C42.0654 3.99496 42.0335 3.99495 42.0176 4.0109Z" fill="#FFBF2C" stroke="white" stroke-width="0.170806" stroke-miterlimit="10"/>
<path fill-rule="evenodd" clip-rule="evenodd" d="M41.8534 7.16734C41.5436 7.23339 41.4617 7.24933 41.3159 7.26527C41.1861 7.24933 41.12 7.24933 40.7784 7.1514C39.8993 6.92366 40.6964 10.0824 41.3159 10.0642C41.8374 10.0665 42.7324 6.92366 41.8534 7.16734Z" fill="#62480C" stroke="white" stroke-width="0.170806" stroke-miterlimit="10"/>
<path fill-rule="evenodd" clip-rule="evenodd" d="M40.6012 7.0533C40.5534 7.00547 40.4873 6.95537 40.3894 6.85744C39.754 6.22204 38.859 9.34892 39.4124 9.64043C39.5923 9.7543 40.0637 9.46052 40.5192 9.05514C40.2596 8.2421 40.1776 7.28104 40.5351 7.08518C40.5511 7.07151 40.5853 7.07152 40.6012 7.0533Z" fill="#FFBF2C" stroke="white" stroke-width="0.170806" stroke-miterlimit="10"/>
<path fill-rule="evenodd" clip-rule="evenodd" d="M42.0342 7.07108C42.082 7.02326 42.148 6.95722 42.246 6.87523C42.8973 6.25577 43.6944 9.41454 43.1569 9.69239C42.9611 9.79031 42.4897 9.48058 42.0501 9.05699C42.3439 8.25989 42.4578 7.29883 42.098 7.08703C42.0661 7.08703 42.0501 7.07108 42.0342 7.07108Z" fill="#FFBF2C" stroke="white" stroke-width="0.170806" stroke-miterlimit="10"/>
<path fill-rule="evenodd" clip-rule="evenodd" d="M39.6717 4.97164C39.5897 5.26542 39.5737 5.34513 39.5737 5.49317C39.5737 5.62298 39.5737 5.68902 39.6717 6.03063C39.8994 6.90971 36.7406 6.11262 36.7589 5.49317C36.7748 4.97164 39.8994 4.07434 39.6717 4.97164Z" fill="#3CFF2C" stroke="white" stroke-width="0.170806" stroke-miterlimit="10"/>
<path fill-rule="evenodd" clip-rule="evenodd" d="M39.7692 6.20801C39.817 6.25583 39.883 6.32188 39.965 6.41981C40.6004 7.05521 37.4735 7.95023 37.182 7.41276C37.0841 7.2169 37.3779 6.74548 37.7833 6.29C38.5804 6.54962 39.5414 6.63161 39.7373 6.27405C39.7532 6.25584 39.7692 6.22395 39.7692 6.20801Z" fill="#FFBF2C" stroke="white" stroke-width="0.170806" stroke-miterlimit="10"/>
<path fill-rule="evenodd" clip-rule="evenodd" d="M39.7697 4.79199C39.8016 4.72595 39.8676 4.66218 39.9496 4.56425C40.5691 3.91291 37.4262 3.11582 37.1324 3.66923C37.0345 3.84914 37.3443 4.32057 37.7679 4.76011C38.5649 4.46632 39.526 4.3684 39.7378 4.71229C39.7537 4.74189 39.7538 4.76011 39.7697 4.79199Z" fill="#FFBF2C" stroke="white" stroke-width="0.170806" stroke-miterlimit="10"/>
<path fill-rule="evenodd" clip-rule="evenodd" d="M42.9445 4.98754C43.0265 5.28132 43.0424 5.37925 43.0424 5.525C43.0424 5.65482 43.0424 5.72086 42.9445 6.06248C42.7167 6.92561 45.8755 6.14446 45.8573 5.525C45.8414 4.98753 42.7167 4.10846 42.9445 4.98754Z" fill="#740E85" stroke="white" stroke-width="0.170806" stroke-miterlimit="10"/>
<path fill-rule="evenodd" clip-rule="evenodd" d="M42.8463 6.22461C42.7984 6.27244 42.7324 6.33848 42.6504 6.43641C42.015 7.0718 45.1419 7.96683 45.4334 7.42936C45.5313 7.24945 45.2375 6.76208 44.8322 6.3066C44.0351 6.56622 43.0581 6.66415 42.8781 6.29066C42.8622 6.27244 42.8463 6.25649 42.8463 6.22461Z" fill="#FFBF2C" stroke="white" stroke-width="0.170806" stroke-miterlimit="10"/>
<path fill-rule="evenodd" clip-rule="evenodd" d="M42.8462 4.80741C42.8143 4.75958 42.7482 4.6776 42.6663 4.59561C42.0309 3.92833 45.1896 3.13123 45.4834 3.68464C45.5654 3.86456 45.2716 4.33599 44.848 4.77553C44.0509 4.49996 43.0899 4.38381 42.8781 4.74364C42.8621 4.75958 42.8621 4.77552 42.8462 4.80741Z" fill="#FFBF2C" stroke="white" stroke-width="0.170806" stroke-miterlimit="10"/>
<path fill-rule="evenodd" clip-rule="evenodd" d="M38.1916 3.4421C37.9638 2.97068 37.8659 2.53114 38.0299 2.3831C38.1756 2.23735 38.6972 2.39905 39.2346 2.66095C39.3166 3.10049 39.4783 3.57191 39.6742 3.89758C39.2824 3.68578 38.6949 3.50587 38.1916 3.4421Z" fill="#FFBF2C" stroke="white" stroke-width="0.170806" stroke-miterlimit="10"/>
<path fill-rule="evenodd" clip-rule="evenodd" d="M44.3762 3.47308C44.588 3.00166 44.6859 2.56211 44.5219 2.41408C44.3761 2.26832 43.8546 2.43002 43.3171 2.70787C43.2352 3.14741 43.0894 3.60289 42.8936 3.9445C43.2853 3.71676 43.8546 3.53913 44.3762 3.47308Z" fill="#FFBF2C" stroke="white" stroke-width="0.170806" stroke-miterlimit="10"/>
<path fill-rule="evenodd" clip-rule="evenodd" d="M38.2235 7.59057C37.9958 8.06199 37.9138 8.50153 38.0618 8.64956C38.2076 8.79532 38.7291 8.63362 39.2666 8.35578C39.3645 7.91624 39.5103 7.46075 39.7061 7.11914C39.3144 7.34688 38.7291 7.5268 38.2235 7.59057Z" fill="#FFBF2C" stroke="white" stroke-width="0.170806" stroke-miterlimit="10"/>
<path fill-rule="evenodd" clip-rule="evenodd" d="M44.4084 7.64135C44.6202 8.11277 44.7181 8.55231 44.5701 8.70034C44.4084 8.8461 43.8869 8.68441 43.3653 8.40656C43.2674 7.96702 43.1216 7.49559 42.9258 7.16992C43.3175 7.37944 43.9051 7.55936 44.4084 7.64135Z" fill="#FFBF2C" stroke="white" stroke-width="0.170806" stroke-miterlimit="10"/>
<path d="M41.3006 3.97656C41.7401 3.97656 42.1318 4.13826 42.4074 4.43204C42.7012 4.70989 42.8788 5.09932 42.8788 5.53886C42.8788 5.96246 42.6989 6.3519 42.4074 6.64569C42.1296 6.92353 41.7401 7.10117 41.3006 7.10117C40.877 7.10117 40.4876 6.92126 40.2097 6.64569C39.9159 6.3519 39.7383 5.96246 39.7383 5.53886C39.7383 5.09932 39.9182 4.70761 40.2097 4.43204C40.4876 4.14054 40.877 3.97656 41.3006 3.97656ZM42.3254 4.51403C42.0658 4.2544 41.706 4.10638 41.3006 4.10638C40.9089 4.10638 40.5513 4.25213 40.2917 4.51403C40.0321 4.77365 39.8681 5.13348 39.8681 5.53886C39.8681 5.93058 40.0298 6.28814 40.2917 6.54776C40.5513 6.80739 40.9112 6.97136 41.3006 6.97136C41.7083 6.97136 42.0658 6.80966 42.3254 6.54776C42.5851 6.28814 42.7331 5.9283 42.7331 5.53886C42.7331 5.13348 42.5873 4.77593 42.3254 4.51403Z" fill="#FFBF2C" stroke="white" stroke-width="0.170806" stroke-miterlimit="10"/>
<path d="M12.5155 64.9321L10.4316 72.9258H8.07451L6.79916 67.665L5.47826 72.9258H3.12114L1.09425 64.9321H3.17808L4.32817 70.7509L5.75155 64.9321H7.89232L9.25877 70.7509L10.4202 64.9321H12.5155ZM17.2725 73.0055C16.521 73.0055 15.8301 72.8309 15.2001 72.4817C14.5776 72.1325 14.0803 71.6466 13.7083 71.0241C13.344 70.3941 13.1618 69.6881 13.1618 68.9061C13.1618 68.1242 13.344 67.422 13.7083 66.7995C14.0803 66.1771 14.5776 65.6912 15.2001 65.342C15.8301 64.9928 16.521 64.8182 17.2725 64.8182C18.024 64.8182 18.7111 64.9928 19.3336 65.342C19.9636 65.6912 20.4571 66.1771 20.8139 66.7995C21.1783 67.422 21.3605 68.1242 21.3605 68.9061C21.3605 69.6881 21.1783 70.3941 20.8139 71.0241C20.4495 71.6466 19.956 72.1325 19.3336 72.4817C18.7111 72.8309 18.024 73.0055 17.2725 73.0055ZM17.2725 71.2291C17.9102 71.2291 18.4188 71.0166 18.7984 70.5914C19.1855 70.1663 19.3791 69.6046 19.3791 68.9061C19.3791 68.2002 19.1855 67.6384 18.7984 67.2209C18.4188 66.7957 17.9102 66.5832 17.2725 66.5832C16.6272 66.5832 16.111 66.792 15.7239 67.2095C15.3443 67.627 15.1545 68.1926 15.1545 68.9061C15.1545 69.6121 15.3443 70.1777 15.7239 70.6028C16.111 71.0203 16.6272 71.2291 17.2725 71.2291ZM31.4964 64.9321V72.9258H29.5493V68.1318L27.7615 72.9258H26.1901L24.3909 68.1204V72.9258H22.4437V64.9321H24.7439L26.9872 70.4662L29.2076 64.9321H31.4964ZM34.8439 66.4921V68.1091H37.4515V69.6121H34.8439V71.3658H37.7931V72.9258H32.8967V64.9321H37.7931V66.4921H34.8439ZM46.2083 72.9258H44.2612L41.0045 67.9952V72.9258H39.0573V64.9321H41.0045L44.2612 69.8854V64.9321H46.2083V72.9258Z" fill="white"/>
<path d="M3.39371 75.1857C3.62009 75.1857 3.81777 75.2351 3.98675 75.334C4.15893 75.4328 4.28646 75.5572 4.36936 75.707V75.2288H4.80935V77.907C4.80935 78.1461 4.75834 78.3582 4.65631 78.5431C4.55428 78.7312 4.40762 78.8779 4.21632 78.9831C4.0282 79.0883 3.8082 79.1409 3.55632 79.1409C3.21198 79.1409 2.92502 79.0596 2.69546 78.897C2.4659 78.7344 2.33039 78.5128 2.28894 78.2322H2.71937C2.7672 78.3916 2.86604 78.5192 3.01589 78.6148C3.16575 78.7137 3.34589 78.7631 3.55632 78.7631C3.79545 78.7631 3.98994 78.6882 4.13979 78.5383C4.29284 78.3884 4.36936 78.178 4.36936 77.907V77.357C4.28327 77.51 4.15574 77.6376 3.98675 77.7396C3.81777 77.8416 3.62009 77.8927 3.39371 77.8927C3.16096 77.8927 2.94894 77.8353 2.75763 77.7205C2.56952 77.6057 2.42126 77.4447 2.31286 77.2374C2.20445 77.0302 2.15025 76.7943 2.15025 76.5296C2.15025 76.2618 2.20445 76.0275 2.31286 75.8266C2.42126 75.6225 2.56952 75.4647 2.75763 75.3531C2.94894 75.2415 3.16096 75.1857 3.39371 75.1857ZM4.36936 76.5344C4.36936 76.3367 4.3295 76.1646 4.24979 76.0179C4.17008 75.8712 4.06168 75.7596 3.92458 75.6831C3.79067 75.6034 3.64241 75.5635 3.4798 75.5635C3.31719 75.5635 3.16893 75.6018 3.03502 75.6783C2.90111 75.7548 2.7943 75.8664 2.71459 76.0131C2.63488 76.1598 2.59503 76.3319 2.59503 76.5296C2.59503 76.7305 2.63488 76.9059 2.71459 77.0557C2.7943 77.2024 2.90111 77.3156 3.03502 77.3953C3.16893 77.4718 3.31719 77.51 3.4798 77.51C3.64241 77.51 3.79067 77.4718 3.92458 77.3953C4.06168 77.3156 4.17008 77.2024 4.24979 77.0557C4.3295 76.9059 4.36936 76.7321 4.36936 76.5344ZM7.35741 77.8927C7.11191 77.8927 6.88872 77.8369 6.68785 77.7253C6.49018 77.6137 6.33395 77.4558 6.21916 77.2518C6.10757 77.0445 6.05177 76.8054 6.05177 76.5344C6.05177 76.2666 6.10916 76.0306 6.22395 75.8266C6.34192 75.6193 6.50133 75.4615 6.7022 75.3531C6.90307 75.2415 7.12785 75.1857 7.37654 75.1857C7.62524 75.1857 7.85002 75.2415 8.05089 75.3531C8.25175 75.4615 8.40958 75.6177 8.52436 75.8218C8.64233 76.0259 8.70131 76.2634 8.70131 76.5344C8.70131 76.8054 8.64074 77.0445 8.51958 77.2518C8.40161 77.4558 8.24059 77.6137 8.03654 77.7253C7.83248 77.8369 7.60611 77.8927 7.35741 77.8927ZM7.35741 77.51C7.51364 77.51 7.66031 77.4734 7.79741 77.4C7.93451 77.3267 8.04451 77.2167 8.12741 77.0701C8.21349 76.9234 8.25654 76.7448 8.25654 76.5344C8.25654 76.324 8.21509 76.1454 8.13219 75.9988C8.04929 75.8521 7.94089 75.7437 7.80697 75.6735C7.67306 75.6002 7.52799 75.5635 7.37176 75.5635C7.21234 75.5635 7.06568 75.6002 6.93177 75.6735C6.80104 75.7437 6.69583 75.8521 6.61612 75.9988C6.53641 76.1454 6.49655 76.324 6.49655 76.5344C6.49655 76.748 6.53481 76.9282 6.61133 77.0748C6.69104 77.2215 6.79626 77.3315 6.92698 77.4048C7.05771 77.475 7.20118 77.51 7.35741 77.51ZM9.78049 76.5296C9.78049 76.2618 9.8347 76.0275 9.9431 75.8266C10.0515 75.6225 10.1998 75.4647 10.3879 75.3531C10.5792 75.2415 10.7912 75.1857 11.024 75.1857C11.2535 75.1857 11.4528 75.2351 11.6218 75.334C11.7908 75.4328 11.9167 75.5572 11.9996 75.707V75.2288H12.4396V77.8496H11.9996V77.3618C11.9135 77.5148 11.7844 77.6424 11.6122 77.7444C11.4432 77.8432 11.2456 77.8927 11.0192 77.8927C10.7864 77.8927 10.576 77.8353 10.3879 77.7205C10.1998 77.6057 10.0515 77.4447 9.9431 77.2374C9.8347 77.0302 9.78049 76.7943 9.78049 76.5296ZM11.9996 76.5344C11.9996 76.3367 11.9597 76.1646 11.88 76.0179C11.8003 75.8712 11.6919 75.7596 11.5548 75.6831C11.4209 75.6034 11.2727 75.5635 11.11 75.5635C10.9474 75.5635 10.7992 75.6018 10.6653 75.6783C10.5314 75.7548 10.4245 75.8664 10.3448 76.0131C10.2651 76.1598 10.2253 76.3319 10.2253 76.5296C10.2253 76.7305 10.2651 76.9059 10.3448 77.0557C10.4245 77.2024 10.5314 77.3156 10.6653 77.3953C10.7992 77.4718 10.9474 77.51 11.11 77.51C11.2727 77.51 11.4209 77.4718 11.5548 77.3953C11.6919 77.3156 11.8003 77.2024 11.88 77.0557C11.9597 76.9059 11.9996 76.7321 11.9996 76.5344ZM14.2798 74.3105V77.8496H13.8446V74.3105H14.2798ZM16.619 77.8927C16.4181 77.8927 16.2379 77.8592 16.0785 77.7922C15.9191 77.7221 15.7932 77.6264 15.7007 77.5053C15.6082 77.3809 15.5572 77.239 15.5477 77.0796H15.9972C16.01 77.2103 16.0706 77.3172 16.179 77.4C16.2906 77.4829 16.4356 77.5244 16.6142 77.5244C16.78 77.5244 16.9107 77.4877 17.0063 77.4144C17.102 77.3411 17.1498 77.2486 17.1498 77.137C17.1498 77.0222 17.0988 76.9377 16.9968 76.8835C16.8948 76.8261 16.7369 76.7703 16.5233 76.7161C16.3288 76.6651 16.1694 76.6141 16.0451 76.5631C15.9239 76.5089 15.8187 76.4308 15.7294 76.3288C15.6433 76.2235 15.6003 76.0864 15.6003 75.9175C15.6003 75.7835 15.6401 75.6608 15.7198 75.5492C15.7995 75.4376 15.9127 75.3499 16.0594 75.2862C16.2061 75.2192 16.3735 75.1857 16.5616 75.1857C16.8517 75.1857 17.0861 75.2591 17.2646 75.4057C17.4432 75.5524 17.5388 75.7533 17.5516 76.0083H17.1163C17.1068 75.8712 17.051 75.7612 16.949 75.6783C16.8501 75.5954 16.7162 75.554 16.5472 75.554C16.391 75.554 16.2666 75.5875 16.1742 75.6544C16.0817 75.7214 16.0355 75.809 16.0355 75.9175C16.0355 76.0035 16.0626 76.0753 16.1168 76.1327C16.1742 76.1869 16.2443 76.2315 16.3272 76.2666C16.4133 76.2985 16.5313 76.3351 16.6811 76.3766C16.8692 76.4276 17.0223 76.4786 17.1403 76.5296C17.2582 76.5774 17.3587 76.6508 17.4416 76.7496C17.5276 76.8485 17.5723 76.9776 17.5755 77.137C17.5755 77.2805 17.5356 77.4096 17.4559 77.5244C17.3762 77.6392 17.263 77.73 17.1163 77.797C16.9729 77.8608 16.8071 77.8927 16.619 77.8927ZM21.0288 74.8031C20.9459 74.8031 20.8757 74.7744 20.8184 74.717C20.761 74.6596 20.7323 74.5895 20.7323 74.5066C20.7323 74.4237 20.761 74.3536 20.8184 74.2962C20.8757 74.2388 20.9459 74.2101 21.0288 74.2101C21.1085 74.2101 21.1754 74.2388 21.2297 74.2962C21.287 74.3536 21.3157 74.4237 21.3157 74.5066C21.3157 74.5895 21.287 74.6596 21.2297 74.717C21.1754 74.7744 21.1085 74.8031 21.0288 74.8031ZM21.2392 75.2288V77.8496H20.804V75.2288H21.2392ZM23.9275 75.1809C24.2463 75.1809 24.5046 75.2782 24.7022 75.4727C24.8999 75.664 24.9988 75.9414 24.9988 76.3048V77.8496H24.5683V76.367C24.5683 76.1056 24.503 75.9063 24.3722 75.7692C24.2415 75.6289 24.063 75.5588 23.8366 75.5588C23.607 75.5588 23.4237 75.6305 23.2866 75.774C23.1527 75.9175 23.0857 76.1263 23.0857 76.4005V77.8496H22.6505V75.2288H23.0857V75.6018C23.1718 75.4679 23.2882 75.3643 23.4349 75.2909C23.5847 75.2176 23.7489 75.1809 23.9275 75.1809ZM26.604 74.8031C26.5211 74.8031 26.451 74.7744 26.3936 74.717C26.3362 74.6596 26.3075 74.5895 26.3075 74.5066C26.3075 74.4237 26.3362 74.3536 26.3936 74.2962C26.451 74.2388 26.5211 74.2101 26.604 74.2101C26.6837 74.2101 26.7507 74.2388 26.8049 74.2962C26.8623 74.3536 26.891 74.4237 26.891 74.5066C26.891 74.5895 26.8623 74.6596 26.8049 74.717C26.7507 74.7744 26.6837 74.8031 26.604 74.8031ZM26.8145 75.2288V77.8496H26.3792V75.2288H26.8145ZM28.7566 75.5875V77.1322C28.7566 77.2598 28.7837 77.3506 28.8379 77.4048C28.8921 77.4558 28.9862 77.4814 29.1201 77.4814H29.4405V77.8496H29.0484C28.806 77.8496 28.6243 77.7938 28.5031 77.6822C28.382 77.5706 28.3214 77.3873 28.3214 77.1322V75.5875H27.9818V75.2288H28.3214V74.5688H28.7566V75.2288H29.4405V75.5875H28.7566ZM30.8622 74.8031C30.7793 74.8031 30.7091 74.7744 30.6517 74.717C30.5944 74.6596 30.5657 74.5895 30.5657 74.5066C30.5657 74.4237 30.5944 74.3536 30.6517 74.2962C30.7091 74.2388 30.7793 74.2101 30.8622 74.2101C30.9419 74.2101 31.0088 74.2388 31.063 74.2962C31.1204 74.3536 31.1491 74.4237 31.1491 74.5066C31.1491 74.5895 31.1204 74.6596 31.063 74.717C31.0088 74.7744 30.9419 74.8031 30.8622 74.8031ZM31.0726 75.2288V77.8496H30.6374V75.2288H31.0726ZM32.3213 76.5296C32.3213 76.2618 32.3755 76.0275 32.4839 75.8266C32.5923 75.6225 32.7406 75.4647 32.9287 75.3531C33.12 75.2415 33.332 75.1857 33.5648 75.1857C33.7943 75.1857 33.9936 75.2351 34.1626 75.334C34.3316 75.4328 34.4575 75.5572 34.5404 75.707V75.2288H34.9804V77.8496H34.5404V77.3618C34.4543 77.5148 34.3252 77.6424 34.153 77.7444C33.984 77.8432 33.7864 77.8927 33.56 77.8927C33.3272 77.8927 33.1168 77.8353 32.9287 77.7205C32.7406 77.6057 32.5923 77.4447 32.4839 77.2374C32.3755 77.0302 32.3213 76.7943 32.3213 76.5296ZM34.5404 76.5344C34.5404 76.3367 34.5006 76.1646 34.4209 76.0179C34.3411 75.8712 34.2327 75.7596 34.0956 75.6831C33.9617 75.6034 33.8135 75.5635 33.6509 75.5635C33.4883 75.5635 33.34 75.6018 33.2061 75.6783C33.0722 75.7548 32.9654 75.8664 32.8857 76.0131C32.8059 76.1598 32.7661 76.3319 32.7661 76.5296C32.7661 76.7305 32.8059 76.9059 32.8857 77.0557C32.9654 77.2024 33.0722 77.3156 33.2061 77.3953C33.34 77.4718 33.4883 77.51 33.6509 77.51C33.8135 77.51 33.9617 77.4718 34.0956 77.3953C34.2327 77.3156 34.3411 77.2024 34.4209 77.0557C34.5006 76.9059 34.5404 76.7321 34.5404 76.5344ZM36.9163 75.5875V77.1322C36.9163 77.2598 36.9434 77.3506 36.9976 77.4048C37.0518 77.4558 37.1459 77.4814 37.2798 77.4814H37.6002V77.8496H37.208C36.9657 77.8496 36.784 77.7938 36.6628 77.6822C36.5417 77.5706 36.4811 77.3873 36.4811 77.1322V75.5875H36.1415V75.2288H36.4811V74.5688H36.9163V75.2288H37.6002V75.5875H36.9163ZM39.0219 74.8031C38.939 74.8031 38.8688 74.7744 38.8114 74.717C38.754 74.6596 38.7254 74.5895 38.7254 74.5066C38.7254 74.4237 38.754 74.3536 38.8114 74.2962C38.8688 74.2388 38.939 74.2101 39.0219 74.2101C39.1016 74.2101 39.1685 74.2388 39.2227 74.2962C39.2801 74.3536 39.3088 74.4237 39.3088 74.5066C39.3088 74.5895 39.2801 74.6596 39.2227 74.717C39.1685 74.7744 39.1016 74.8031 39.0219 74.8031ZM39.2323 75.2288V77.8496H38.7971V75.2288H39.2323ZM41.6193 77.4479L42.4323 75.2288H42.8962L41.8679 77.8496H41.361L40.3327 75.2288H40.8014L41.6193 77.4479ZM46.3853 76.4388C46.3853 76.5217 46.3805 76.6093 46.371 76.7018H44.2762C44.2921 76.9601 44.3798 77.1625 44.5392 77.3092C44.7018 77.4527 44.8979 77.5244 45.1275 77.5244C45.3156 77.5244 45.4718 77.4814 45.5962 77.3953C45.7237 77.306 45.813 77.188 45.864 77.0414H46.3327C46.2625 77.2932 46.1223 77.4989 45.9118 77.6583C45.7014 77.8145 45.4399 77.8927 45.1275 77.8927C44.8788 77.8927 44.6556 77.8369 44.4579 77.7253C44.2634 77.6137 44.1104 77.4558 43.9988 77.2518C43.8872 77.0445 43.8314 76.8054 43.8314 76.5344C43.8314 76.2634 43.8856 76.0259 43.994 75.8218C44.1024 75.6177 44.2539 75.4615 44.4484 75.3531C44.646 75.2415 44.8724 75.1857 45.1275 75.1857C45.3762 75.1857 45.5962 75.2399 45.7875 75.3483C45.9788 75.4567 46.1254 75.6066 46.2275 75.7979C46.3327 75.986 46.3853 76.1996 46.3853 76.4388ZM45.9357 76.3479C45.9357 76.1821 45.8991 76.0402 45.8257 75.9222C45.7524 75.8011 45.652 75.7102 45.5244 75.6496C45.4001 75.5859 45.2614 75.554 45.1084 75.554C44.8884 75.554 44.7002 75.6241 44.544 75.7644C44.391 75.9047 44.3033 76.0992 44.281 76.3479H45.9357Z" fill="white"/>
</svg>
